<svg data-v-0dd9719b="" version="1.0" xmlns="http://www.w3.org/2000/svg" xmlns:xlink="http://www.w3.org/1999/xlink" width="100%" height="100%" viewBox="0 0 340.000000 250.000000" preserveAspectRatio="xMidYMid meet" color-interpolation-filters="sRGB" style="margin: auto;"> <rect data-v-0dd9719b="" x="0" y="0" width="100%" height="100%" fill="#fff" fill-opacity="1" class="background"></rect> <rect data-v-0dd9719b="" x="0" y="0" width="100%" height="100%" fill="url(#watermark)" fill-opacity="1" class="watermarklayer"></rect> <g data-v-0dd9719b="" fill="#333" class="icon-text-wrapper icon-svg-group iconsvg" transform="translate(47.32499694824219,94.99699974060059)"><g class="iconsvg-imagesvg" transform="translate(0,0)"><g><rect fill="#333" fill-opacity="0" stroke-width="2" x="0" y="0" width="60" height="60.006000600060005" class="image-rect"></rect> <svg x="0" y="0" width="60" height="60.006000600060005" filtersec="colorsb2044886955" class="image-svg-svg primary" style="overflow: visible;"><svg xmlns="http://www.w3.org/2000/svg" viewBox="0.01964184083044529 -0.03000464104115963 99.9903564453125 100.00001525878906"><path d="M75.74 61.83H62.5a17.53 17.53 0 0 1-26.75-1.37 2.57 2.57 0 0 0 .3-1.17 2.53 2.53 0 1 0-2.53 2.53 2.73 2.73 0 0 0 .5 0A19.68 19.68 0 0 0 63.41 64h9.45a26.79 26.79 0 1 1 0-28h-9.1a19.69 19.69 0 0 0-30.19 2.5 2.53 2.53 0 1 0 2.48 2.5 2.47 2.47 0 0 0-.53-1.53 17.53 17.53 0 0 1 27.29-1.33H98.6a50 50 0 1 0 0 23.66zm-43.45-2.54a1.23 1.23 0 1 1 1.23 1.23 1.24 1.24 0 0 1-1.23-1.23zM34.75 41a1.23 1.23 0 1 1-1.23-1.23A1.23 1.23 0 0 1 34.75 41zM83.6 73.42a3.7 3.7 0 0 1-.95-.14 40 40 0 1 1 0-46.56 3.7 3.7 0 0 1 .95-.14 3.86 3.86 0 1 1-3.27 1.86 37.14 37.14 0 1 0 0 43.12 3.83 3.83 0 1 1 3.27 1.86z" fill="#0080df"></path><path d="M99.87 46.27H58.16a9 9 0 1 0 0 7.46h41.71c.09-1.23.14-2.47.14-3.73s-.01-2.5-.14-3.73zM50 53.73A3.73 3.73 0 1 1 53.73 50 3.73 3.73 0 0 1 50 53.73z" fill="#f6911e"></path><path d="M81.74 30.42a1.87 1.87 0 1 0 1.86-1.87 1.87 1.87 0 0 0-1.86 1.87zM83.6 67.71a1.87 1.87 0 1 0 1.87 1.87 1.87 1.87 0 0 0-1.87-1.87z" fill="#0080df"></path></svg></svg> <!----></g></g> <g transform="translate(67,16.692999839782715)"><g data-gra="path-name" fill-rule="" class="tp-name iconsvg-namesvg"><g transform="scale(1)"><g><path d="M11.78 0.33Q8.95 0.33 6.42-0.42 3.9-1.18 2.32-2.47L2.32-2.47Q1.47-3.09 1.47-4.23L1.47-4.23Q1.47-5.01 1.93-5.58 2.39-6.15 3.02-6.15L3.02-6.15Q3.68-6.15 4.53-5.63L4.53-5.63Q6.11-4.49 7.84-3.98 9.57-3.46 11.67-3.46L11.67-3.46Q14.36-3.46 15.79-4.4 17.23-5.34 17.23-7.14L17.23-7.14Q17.23-8.54 15.89-9.3 14.54-10.05 11.41-10.75L11.41-10.75Q8.17-11.45 6.15-12.37 4.12-13.29 3.09-14.73 2.06-16.16 2.06-18.37L2.06-18.37Q2.06-20.65 3.35-22.46 4.64-24.26 6.94-25.28 9.24-26.29 12.11-26.29L12.11-26.29Q17.38-26.29 20.69-23.49L20.69-23.49Q21.17-23.08 21.37-22.7 21.57-22.31 21.57-21.72L21.57-21.72Q21.57-20.95 21.11-20.38 20.65-19.81 20.03-19.81L20.03-19.81Q19.66-19.81 19.35-19.92 19.03-20.03 18.52-20.32L18.52-20.32Q17.01-21.43 15.59-21.96 14.17-22.5 12.11-22.5L12.11-22.5Q9.61-22.5 8.16-21.48 6.7-20.47 6.7-18.67L6.7-18.67Q6.7-17.16 7.99-16.35 9.28-15.54 12.37-14.84L12.37-14.84Q15.65-14.1 17.69-13.2 19.73-12.3 20.82-10.9 21.91-9.5 21.91-7.4L21.91-7.4Q21.91-5.12 20.64-3.37 19.37-1.62 17.06-0.64 14.76 0.33 11.78 0.33L11.78 0.33ZM46.57-26.14Q47.64-26.14 48.27-25.5 48.89-24.85 48.89-23.78L48.89-23.78 48.89-2.17Q48.89-1.1 48.25-0.44 47.6 0.22 46.57 0.22L46.57 0.22Q45.51 0.22 44.88-0.44 44.25-1.1 44.25-2.17L44.25-2.17 44.25-11.27 30.96-11.27 30.96-2.17Q30.96-1.1 30.32-0.44 29.67 0.22 28.61 0.22L28.61 0.22Q27.58 0.22 26.93-0.44 26.29-1.1 26.29-2.17L26.29-2.17 26.29-23.78Q26.29-24.85 26.91-25.5 27.54-26.14 28.61-26.14L28.61-26.14Q29.67-26.14 30.32-25.5 30.96-24.85 30.96-23.78L30.96-23.78 30.96-15.1 44.25-15.1 44.25-23.78Q44.25-24.85 44.88-25.5 45.51-26.14 46.57-26.14L46.57-26.14ZM56.77 0Q55.7 0 55.1-0.59 54.49-1.18 54.49-2.25L54.49-2.25 54.49-23.71Q54.49-24.78 55.1-25.37 55.7-25.96 56.77-25.96L56.77-25.96 70.06-25.96Q71.13-25.96 71.72-25.48 72.31-25 72.31-24.12L72.31-24.12Q72.31-23.19 71.72-22.7 71.13-22.2 70.06-22.2L70.06-22.2 59.13-22.2 59.13-15.06 69.33-15.06Q70.39-15.06 70.98-14.58 71.57-14.1 71.57-13.18L71.57-13.18Q71.57-12.3 70.98-11.82 70.39-11.34 69.33-11.34L69.33-11.34 59.13-11.34 59.13-3.76 70.06-3.76Q71.13-3.76 71.72-3.26 72.31-2.76 72.31-1.84L72.31-1.84Q72.31-0.96 71.72-0.48 71.13 0 70.06 0L70.06 0 56.77 0ZM78.53 0.22Q77.46 0.22 76.82-0.44 76.18-1.1 76.18-2.17L76.18-2.17 76.18-23.78Q76.18-24.85 76.82-25.5 77.46-26.14 78.53-26.14L78.53-26.14Q79.64-26.14 80.28-25.5 80.92-24.85 80.92-23.78L80.92-23.78 80.92-2.17Q80.92-1.1 80.28-0.44 79.64 0.22 78.53 0.22L78.53 0.22ZM106.18-26.14Q107.21-26.14 107.82-25.5 108.43-24.85 108.43-23.78L108.43-23.78 108.43-2.17Q108.43-1.1 107.8-0.44 107.18 0.22 106.18 0.22L106.18 0.22Q105 0.22 104.38-0.63L104.38-0.63 90.94-18.11 90.94-2.17Q90.94-1.1 90.35-0.44 89.76 0.22 88.73 0.22L88.73 0.22Q87.7 0.22 87.11-0.44 86.52-1.1 86.52-2.17L86.52-2.17 86.52-23.78Q86.52-24.85 87.15-25.5 87.77-26.14 88.8-26.14L88.8-26.14Q89.94-26.14 90.57-25.29L90.57-25.29 103.97-7.88 103.97-23.78Q103.97-24.85 104.58-25.5 105.19-26.14 106.18-26.14L106.18-26.14ZM116.38 0.22Q115.31 0.22 114.67-0.42 114.02-1.07 114.02-2.17L114.02-2.17 114.02-23.71Q114.02-24.78 114.63-25.37 115.24-25.96 116.31-25.96L116.31-25.96 125.36-25.96Q129.52-25.96 131.84-23.88 134.16-21.8 134.16-18.04L134.16-18.04Q134.16-14.29 131.84-12.19 129.52-10.09 125.36-10.09L125.36-10.09 118.77-10.09 118.77-2.17Q118.77-1.07 118.13-0.42 117.48 0.22 116.38 0.22L116.38 0.22ZM124.77-13.73Q129.67-13.73 129.67-18L129.67-18Q129.67-22.27 124.77-22.27L124.77-22.27 118.77-22.27 118.77-13.73 124.77-13.73ZM159.09-2.83Q159.31-2.36 159.31-1.88L159.31-1.88Q159.31-1.03 158.63-0.44 157.95 0.15 157.06 0.15L157.06 0.15Q156.47 0.15 155.96-0.17 155.44-0.48 155.15-1.14L155.15-1.14 152.94-6.07 139.98-6.07 137.77-1.14Q137.48-0.48 136.96-0.17 136.45 0.15 135.82 0.15L135.82 0.15Q134.97 0.15 134.27-0.44 133.57-1.03 133.57-1.88L133.57-1.88Q133.57-2.36 133.79-2.83L133.79-2.83 143.96-24.67Q144.29-25.4 144.97-25.79 145.65-26.18 146.42-26.18L146.42-26.18Q147.2-26.18 147.88-25.79 148.56-25.4 148.89-24.67L148.89-24.67 159.09-2.83ZM146.46-20.69L141.6-9.76 151.32-9.76 146.46-20.69ZM176.06-25.33Q176.72-26.14 177.64-26.14L177.64-26.14Q178.49-26.14 179.15-25.5 179.82-24.85 179.82-23.97L179.82-23.97Q179.82-23.23 179.26-22.57L179.26-22.57 170.91-12.37 170.91-2.17Q170.91-1.03 170.24-0.4 169.58 0.22 168.55 0.22L168.55 0.22Q167.48 0.22 166.82-0.4 166.16-1.03 166.16-2.17L166.16-2.17 166.16-12.37 157.8-22.57Q157.25-23.23 157.25-23.97L157.25-23.97Q157.25-24.85 157.91-25.5 158.57-26.14 159.42-26.14L159.42-26.14Q160.34-26.14 161-25.33L161-25.33 168.55-15.98 176.06-25.33Z" transform="translate(-1.4700000286102295, 26.290000915527344)"></path></g> <!----> <!----> <!----> <!----> <!----> <!----> <!----></g></g> <!----></g></g><defs v-gra="od"></defs></svg>